# xmcd
#
# Track frame offsets:
#	150
#	21475
#	41502
#	63175
#	83504
#	101705
#	124771
#	150278
#	167364
#	187564
#	205581
#	221355
#	236685
#	253158
#	275342
#	292825
#	309151
#	325035
#	342129
#
# Disc length: 4789 seconds
#
# Revision: 1
# Processed by: cddbd v1.5.1PL2 Copyright (c) Steve Scherf et al.
# Submitted via: audiograbber 1.83.01
#
DISCID=ec12b313
DTITLE=Cesaria Evora - Cesaria Evora CD2
DYEAR=1900
DGENRE=
TTITLE0=Mae velha
TTITLE1=Esperanza irisada
TTITLE2=Coragem irmon
TTITLE3=Tudo tem se limite'Amor di mundo
TTITLE4=Amor di mundo
TTITLE5=Â ana
TTITLE6=Luiza
TTITLE7=Carnaval  de sao
TTITLE8=Miss perfumado
TTITLE9=Cabo verde manda
TTITLE10=Sangue de beirona
TTITLE11=Terezinha
TTITLE12=Bo e di meu cretcheu
TTITLE13=Belga
TTITLE14=Nha cancera ka
TTITLE15=Mar azul
TTITLE16=Areia de salamanza
TTITLE17=Sorte
TTITLE18=Ausencia
EXTD=
EXTT0=
EXTT1=
EXTT2=
EXTT3=
EXTT4=
EXTT5=
EXTT6=
EXTT7=
EXTT8=
EXTT9=
EXTT10=
EXTT11=
EXTT12=
EXTT13=
EXTT14=
EXTT15=
EXTT16=
EXTT17=
EXTT18=
PLAYORDER=
